# xmcd
#
# Track frame offsets:
#	150
#	11188
#	24973
#	34809
#	45108
#	56390
#	66923
#	80609
#	93390
#	106868
#	128140
#
# Disc length: 1894
#
# Revision: 3
# Processed by: cddbd v1.5.1PL0 Copyright (c) Steve Scherf et al.
# Submitted via: Audio-CD-Archiv 2.10.438
# Normalized: r1:DSETVAR1,TDELIM( - );r2:TSWAP
#
DISCID=8007640b
DTITLE=Various Artist - Country Music Cavalcade CD2
DYEAR=1900
DGENRE=country
TTITLE0=harold Dorman - Mountain of Love
TTITLE1=Wilma Burgess - Baby
TTITLE2=Johnny And The Hurricanes - Red River Rock
TTITLE3=Dorsey Burnette - Hey, Little One
TTITLE4=Mitchel Torok - Caribbean
TTITLE5=Ferlin Husky - Gone
TTITLE6=Larry Finnegan - Dear One
TTITLE7=Kitty Wells - Making Believe
TTITLE8=Nat Stuckey - Sweet Thang
TTITLE9=Memphis Blue - Her Comes The Pain
TTITLE10=Jeannie Seeley - Don't Touch Me
EXTD=
EXTT0=
EXTT1=
EXTT2=
EXTT3=
EXTT4=
EXTT5=
EXTT6=
EXTT7=
EXTT8=
EXTT9=
EXTT10=
PLAYORDER=
